<mxfile host="www.draw.io" modified="2019-12-22T15:37:14.377Z" agent="Mozilla/5.0 (Windows NT 6.1; Win64; x64; rv:71.0) Gecko/20100101 Firefox/71.0" etag="0qaL3p6uAoYx-PWIOK7S" version="12.4.3" type="github" pages="1">
  <diagram name="Page-1" id="74e2e168-ea6b-b213-b513-2b3c1d86103e">
    <mxGraphModel dx="2031" dy="1139" grid="1" gridSize="10" guides="1" tooltips="1" connect="1" arrows="1" fold="1" page="1" pageScale="1" pageWidth="1100" pageHeight="850" background="#ffffff" math="0" shadow="0">
      <root>
        <mxCell id="0"/>
        <mxCell id="1" parent="0"/>
        <mxCell id="EupSJTAs6RmiVeXPUSCt-11" style="edgeStyle=orthogonalEdgeStyle;rounded=0;orthogonalLoop=1;jettySize=auto;html=1;exitX=0.5;exitY=1;exitDx=0;exitDy=0;entryX=0.5;entryY=0;entryDx=0;entryDy=0;fontFamily=Helvetica;" edge="1" parent="1" source="EupSJTAs6RmiVeXPUSCt-3" target="EupSJTAs6RmiVeXPUSCt-4">
          <mxGeometry relative="1" as="geometry"/>
        </mxCell>
        <mxCell id="EupSJTAs6RmiVeXPUSCt-3" value="Начало" style="rounded=1;whiteSpace=wrap;html=1;fontFamily=Helvetica;" vertex="1" parent="1">
          <mxGeometry x="470" y="20" width="120" height="60" as="geometry"/>
        </mxCell>
        <mxCell id="EupSJTAs6RmiVeXPUSCt-13" style="edgeStyle=orthogonalEdgeStyle;rounded=0;orthogonalLoop=1;jettySize=auto;html=1;exitX=0.5;exitY=1;exitDx=0;exitDy=0;entryX=0.5;entryY=0;entryDx=0;entryDy=0;fontFamily=Helvetica;" edge="1" parent="1" source="EupSJTAs6RmiVeXPUSCt-4" target="EupSJTAs6RmiVeXPUSCt-12">
          <mxGeometry relative="1" as="geometry"/>
        </mxCell>
        <mxCell id="EupSJTAs6RmiVeXPUSCt-4" value="srand(time(NULL))" style="rounded=0;whiteSpace=wrap;html=1;fontFamily=Helvetica;" vertex="1" parent="1">
          <mxGeometry x="470" y="110" width="120" height="30" as="geometry"/>
        </mxCell>
        <mxCell id="EupSJTAs6RmiVeXPUSCt-15" style="edgeStyle=orthogonalEdgeStyle;rounded=0;orthogonalLoop=1;jettySize=auto;html=1;exitX=0.5;exitY=1;exitDx=0;exitDy=0;entryX=0.5;entryY=0;entryDx=0;entryDy=0;fontFamily=Helvetica;" edge="1" parent="1" source="EupSJTAs6RmiVeXPUSCt-12" target="EupSJTAs6RmiVeXPUSCt-14">
          <mxGeometry relative="1" as="geometry"/>
        </mxCell>
        <mxCell id="EupSJTAs6RmiVeXPUSCt-12" value="" style="rounded=0;whiteSpace=wrap;html=1;fontFamily=Helvetica;" vertex="1" parent="1">
          <mxGeometry x="430" y="170" width="200" height="30" as="geometry"/>
        </mxCell>
        <mxCell id="EupSJTAs6RmiVeXPUSCt-18" style="edgeStyle=orthogonalEdgeStyle;rounded=0;orthogonalLoop=1;jettySize=auto;html=1;exitX=0.5;exitY=1;exitDx=0;exitDy=0;fontFamily=Helvetica;" edge="1" parent="1" source="EupSJTAs6RmiVeXPUSCt-14">
          <mxGeometry relative="1" as="geometry">
            <mxPoint x="530" y="270" as="targetPoint"/>
          </mxGeometry>
        </mxCell>
        <mxCell id="EupSJTAs6RmiVeXPUSCt-14" value="" style="rounded=0;whiteSpace=wrap;html=1;fontFamily=Helvetica;" vertex="1" parent="1">
          <mxGeometry x="450" y="220" width="160" height="30" as="geometry"/>
        </mxCell>
        <mxCell id="EupSJTAs6RmiVeXPUSCt-19" style="edgeStyle=orthogonalEdgeStyle;rounded=0;orthogonalLoop=1;jettySize=auto;html=1;exitX=0.5;exitY=1;exitDx=0;exitDy=0;entryX=0.5;entryY=0;entryDx=0;entryDy=0;fontFamily=Helvetica;" edge="1" parent="1" source="EupSJTAs6RmiVeXPUSCt-16" target="EupSJTAs6RmiVeXPUSCt-17">
          <mxGeometry relative="1" as="geometry"/>
        </mxCell>
        <mxCell id="EupSJTAs6RmiVeXPUSCt-16" value="" style="shape=parallelogram;perimeter=parallelogramPerimeter;whiteSpace=wrap;html=1;fontFamily=Helvetica;" vertex="1" parent="1">
          <mxGeometry x="360" y="350" width="350" height="60" as="geometry"/>
        </mxCell>
        <mxCell id="EupSJTAs6RmiVeXPUSCt-23" style="edgeStyle=orthogonalEdgeStyle;rounded=0;orthogonalLoop=1;jettySize=auto;html=1;exitX=0.5;exitY=1;exitDx=0;exitDy=0;entryX=0.5;entryY=0;entryDx=0;entryDy=0;fontFamily=Helvetica;" edge="1" parent="1" source="EupSJTAs6RmiVeXPUSCt-17">
          <mxGeometry relative="1" as="geometry">
            <mxPoint x="530" y="510" as="targetPoint"/>
          </mxGeometry>
        </mxCell>
        <mxCell id="EupSJTAs6RmiVeXPUSCt-17" value="" style="shape=parallelogram;perimeter=parallelogramPerimeter;whiteSpace=wrap;html=1;fontFamily=Helvetica;" vertex="1" parent="1">
          <mxGeometry x="435" y="430" width="190" height="60" as="geometry"/>
        </mxCell>
        <mxCell id="EupSJTAs6RmiVeXPUSCt-167" style="edgeStyle=orthogonalEdgeStyle;rounded=0;orthogonalLoop=1;jettySize=auto;html=1;exitX=0.5;exitY=1;exitDx=0;exitDy=0;entryX=0.511;entryY=-0.02;entryDx=0;entryDy=0;entryPerimeter=0;fontFamily=Helvetica;" edge="1" parent="1" source="EupSJTAs6RmiVeXPUSCt-22" target="EupSJTAs6RmiVeXPUSCt-32">
          <mxGeometry relative="1" as="geometry"/>
        </mxCell>
        <mxCell id="EupSJTAs6RmiVeXPUSCt-22" value="" style="shape=parallelogram;perimeter=parallelogramPerimeter;whiteSpace=wrap;html=1;fontFamily=Helvetica;" vertex="1" parent="1">
          <mxGeometry x="397.5" y="860" width="261" height="40" as="geometry"/>
        </mxCell>
        <mxCell id="EupSJTAs6RmiVeXPUSCt-25" value="" style="shape=parallelogram;perimeter=parallelogramPerimeter;whiteSpace=wrap;html=1;fontFamily=Helvetica;" vertex="1" parent="1">
          <mxGeometry x="271.25" y="680" width="517.5" height="40" as="geometry"/>
        </mxCell>
        <mxCell id="EupSJTAs6RmiVeXPUSCt-140" style="edgeStyle=orthogonalEdgeStyle;rounded=0;orthogonalLoop=1;jettySize=auto;html=1;exitX=0.5;exitY=1;exitDx=0;exitDy=0;entryX=0.5;entryY=0;entryDx=0;entryDy=0;fontFamily=Helvetica;" edge="1" parent="1" source="EupSJTAs6RmiVeXPUSCt-29" target="EupSJTAs6RmiVeXPUSCt-25">
          <mxGeometry relative="1" as="geometry"/>
        </mxCell>
        <mxCell id="EupSJTAs6RmiVeXPUSCt-161" style="edgeStyle=orthogonalEdgeStyle;rounded=0;orthogonalLoop=1;jettySize=auto;html=1;exitX=1;exitY=0.5;exitDx=0;exitDy=0;fontFamily=Helvetica;" edge="1" parent="1" source="EupSJTAs6RmiVeXPUSCt-29">
          <mxGeometry relative="1" as="geometry">
            <mxPoint x="613" y="633" as="targetPoint"/>
          </mxGeometry>
        </mxCell>
        <mxCell id="EupSJTAs6RmiVeXPUSCt-29" value="" style="rhombus;whiteSpace=wrap;html=1;fontFamily=Helvetica;" vertex="1" parent="1">
          <mxGeometry x="447.5" y="600" width="165" height="65" as="geometry"/>
        </mxCell>
        <mxCell id="EupSJTAs6RmiVeXPUSCt-30" value="" style="shape=parallelogram;perimeter=parallelogramPerimeter;whiteSpace=wrap;html=1;fontFamily=Helvetica;" vertex="1" parent="1">
          <mxGeometry x="418" y="800" width="220" height="30" as="geometry"/>
        </mxCell>
        <mxCell id="EupSJTAs6RmiVeXPUSCt-168" style="edgeStyle=orthogonalEdgeStyle;rounded=0;orthogonalLoop=1;jettySize=auto;html=1;exitX=0.5;exitY=1;exitDx=0;exitDy=0;entryX=0.532;entryY=0;entryDx=0;entryDy=0;entryPerimeter=0;fontFamily=Helvetica;" edge="1" parent="1" source="EupSJTAs6RmiVeXPUSCt-32" target="EupSJTAs6RmiVeXPUSCt-99">
          <mxGeometry relative="1" as="geometry"/>
        </mxCell>
        <mxCell id="EupSJTAs6RmiVeXPUSCt-32" value="" style="shape=parallelogram;perimeter=parallelogramPerimeter;whiteSpace=wrap;html=1;fontFamily=Helvetica;" vertex="1" parent="1">
          <mxGeometry x="214.69" y="920" width="610.62" height="50" as="geometry"/>
        </mxCell>
        <mxCell id="EupSJTAs6RmiVeXPUSCt-173" style="edgeStyle=orthogonalEdgeStyle;rounded=0;orthogonalLoop=1;jettySize=auto;html=1;exitX=0;exitY=0.5;exitDx=0;exitDy=0;entryX=0.5;entryY=0;entryDx=0;entryDy=0;fontFamily=Helvetica;" edge="1" parent="1" source="EupSJTAs6RmiVeXPUSCt-33" target="EupSJTAs6RmiVeXPUSCt-34">
          <mxGeometry relative="1" as="geometry"/>
        </mxCell>
        <mxCell id="EupSJTAs6RmiVeXPUSCt-174" style="edgeStyle=orthogonalEdgeStyle;rounded=0;orthogonalLoop=1;jettySize=auto;html=1;exitX=1;exitY=0.5;exitDx=0;exitDy=0;entryX=0.5;entryY=0;entryDx=0;entryDy=0;fontFamily=Helvetica;" edge="1" parent="1" source="EupSJTAs6RmiVeXPUSCt-33" target="EupSJTAs6RmiVeXPUSCt-41">
          <mxGeometry relative="1" as="geometry"/>
        </mxCell>
        <mxCell id="EupSJTAs6RmiVeXPUSCt-33" value="" style="rhombus;whiteSpace=wrap;html=1;fontFamily=Helvetica;" vertex="1" parent="1">
          <mxGeometry x="430" y="1150" width="180" height="50" as="geometry"/>
        </mxCell>
        <mxCell id="EupSJTAs6RmiVeXPUSCt-175" style="edgeStyle=orthogonalEdgeStyle;rounded=0;orthogonalLoop=1;jettySize=auto;html=1;exitX=0.5;exitY=1;exitDx=0;exitDy=0;entryX=0.5;entryY=0;entryDx=0;entryDy=0;fontFamily=Helvetica;" edge="1" parent="1" source="EupSJTAs6RmiVeXPUSCt-34" target="EupSJTAs6RmiVeXPUSCt-36">
          <mxGeometry relative="1" as="geometry"/>
        </mxCell>
        <mxCell id="EupSJTAs6RmiVeXPUSCt-34" value="" style="rounded=0;whiteSpace=wrap;html=1;fontFamily=Helvetica;" vertex="1" parent="1">
          <mxGeometry x="180" y="1210" width="180" height="60" as="geometry"/>
        </mxCell>
        <mxCell id="EupSJTAs6RmiVeXPUSCt-176" style="edgeStyle=orthogonalEdgeStyle;rounded=0;orthogonalLoop=1;jettySize=auto;html=1;exitX=0.5;exitY=1;exitDx=0;exitDy=0;entryX=0.5;entryY=0;entryDx=0;entryDy=0;fontFamily=Helvetica;" edge="1" parent="1" source="EupSJTAs6RmiVeXPUSCt-36" target="EupSJTAs6RmiVeXPUSCt-37">
          <mxGeometry relative="1" as="geometry"/>
        </mxCell>
        <mxCell id="EupSJTAs6RmiVeXPUSCt-36" value="" style="shape=hexagon;perimeter=hexagonPerimeter2;whiteSpace=wrap;html=1;fontFamily=Helvetica;" vertex="1" parent="1">
          <mxGeometry x="190" y="1290" width="160" height="80" as="geometry"/>
        </mxCell>
        <mxCell id="EupSJTAs6RmiVeXPUSCt-177" style="edgeStyle=orthogonalEdgeStyle;rounded=0;orthogonalLoop=1;jettySize=auto;html=1;exitX=0.5;exitY=1;exitDx=0;exitDy=0;entryX=0.5;entryY=0;entryDx=0;entryDy=0;fontFamily=Helvetica;" edge="1" parent="1" source="EupSJTAs6RmiVeXPUSCt-37" target="EupSJTAs6RmiVeXPUSCt-38">
          <mxGeometry relative="1" as="geometry"/>
        </mxCell>
        <mxCell id="EupSJTAs6RmiVeXPUSCt-37" value="" style="shape=hexagon;perimeter=hexagonPerimeter2;whiteSpace=wrap;html=1;fontFamily=Helvetica;" vertex="1" parent="1">
          <mxGeometry x="200" y="1390" width="150" height="80" as="geometry"/>
        </mxCell>
        <mxCell id="EupSJTAs6RmiVeXPUSCt-178" style="edgeStyle=orthogonalEdgeStyle;rounded=0;orthogonalLoop=1;jettySize=auto;html=1;exitX=0.5;exitY=1;exitDx=0;exitDy=0;entryX=0.5;entryY=0;entryDx=0;entryDy=0;fontFamily=Helvetica;" edge="1" parent="1" source="EupSJTAs6RmiVeXPUSCt-38" target="EupSJTAs6RmiVeXPUSCt-39">
          <mxGeometry relative="1" as="geometry"/>
        </mxCell>
        <mxCell id="EupSJTAs6RmiVeXPUSCt-38" value="" style="rounded=0;whiteSpace=wrap;html=1;fontFamily=Helvetica;" vertex="1" parent="1">
          <mxGeometry x="195" y="1490" width="160" height="60" as="geometry"/>
        </mxCell>
        <mxCell id="EupSJTAs6RmiVeXPUSCt-179" style="edgeStyle=orthogonalEdgeStyle;rounded=0;orthogonalLoop=1;jettySize=auto;html=1;exitX=0.5;exitY=1;exitDx=0;exitDy=0;entryX=0.5;entryY=0;entryDx=0;entryDy=0;fontFamily=Helvetica;" edge="1" parent="1" source="EupSJTAs6RmiVeXPUSCt-39" target="EupSJTAs6RmiVeXPUSCt-40">
          <mxGeometry relative="1" as="geometry"/>
        </mxCell>
        <mxCell id="EupSJTAs6RmiVeXPUSCt-39" value="" style="rounded=0;whiteSpace=wrap;html=1;fontFamily=Helvetica;" vertex="1" parent="1">
          <mxGeometry x="195" y="1570" width="160" height="60" as="geometry"/>
        </mxCell>
        <mxCell id="EupSJTAs6RmiVeXPUSCt-40" value="" style="shape=parallelogram;perimeter=parallelogramPerimeter;whiteSpace=wrap;html=1;fontFamily=Helvetica;" vertex="1" parent="1">
          <mxGeometry x="182.5" y="1650" width="185" height="60" as="geometry"/>
        </mxCell>
        <mxCell id="EupSJTAs6RmiVeXPUSCt-194" style="edgeStyle=orthogonalEdgeStyle;rounded=0;orthogonalLoop=1;jettySize=auto;html=1;exitX=0.5;exitY=1;exitDx=0;exitDy=0;entryX=0.5;entryY=0;entryDx=0;entryDy=0;fontFamily=Helvetica;" edge="1" parent="1" source="EupSJTAs6RmiVeXPUSCt-41" target="EupSJTAs6RmiVeXPUSCt-42">
          <mxGeometry relative="1" as="geometry"/>
        </mxCell>
        <mxCell id="EupSJTAs6RmiVeXPUSCt-41" value="" style="shape=parallelogram;perimeter=parallelogramPerimeter;whiteSpace=wrap;html=1;fontFamily=Helvetica;" vertex="1" parent="1">
          <mxGeometry x="563.13" y="1210" width="433.75" height="60" as="geometry"/>
        </mxCell>
        <mxCell id="EupSJTAs6RmiVeXPUSCt-195" style="edgeStyle=orthogonalEdgeStyle;rounded=0;orthogonalLoop=1;jettySize=auto;html=1;exitX=0.5;exitY=1;exitDx=0;exitDy=0;entryX=0.5;entryY=0;entryDx=0;entryDy=0;fontFamily=Helvetica;" edge="1" parent="1" source="EupSJTAs6RmiVeXPUSCt-42" target="EupSJTAs6RmiVeXPUSCt-43">
          <mxGeometry relative="1" as="geometry"/>
        </mxCell>
        <mxCell id="EupSJTAs6RmiVeXPUSCt-42" value="" style="shape=hexagon;perimeter=hexagonPerimeter2;whiteSpace=wrap;html=1;fontFamily=Helvetica;" vertex="1" parent="1">
          <mxGeometry x="720" y="1290" width="120" height="80" as="geometry"/>
        </mxCell>
        <mxCell id="EupSJTAs6RmiVeXPUSCt-196" style="edgeStyle=orthogonalEdgeStyle;rounded=0;orthogonalLoop=1;jettySize=auto;html=1;exitX=0.5;exitY=1;exitDx=0;exitDy=0;entryX=0.5;entryY=0;entryDx=0;entryDy=0;fontFamily=Helvetica;" edge="1" parent="1" source="EupSJTAs6RmiVeXPUSCt-43" target="EupSJTAs6RmiVeXPUSCt-44">
          <mxGeometry relative="1" as="geometry"/>
        </mxCell>
        <mxCell id="EupSJTAs6RmiVeXPUSCt-43" value="" style="shape=hexagon;perimeter=hexagonPerimeter2;whiteSpace=wrap;html=1;fontFamily=Helvetica;" vertex="1" parent="1">
          <mxGeometry x="720" y="1390" width="120" height="80" as="geometry"/>
        </mxCell>
        <mxCell id="EupSJTAs6RmiVeXPUSCt-197" style="edgeStyle=orthogonalEdgeStyle;rounded=0;orthogonalLoop=1;jettySize=auto;html=1;exitX=0.5;exitY=1;exitDx=0;exitDy=0;entryX=0.5;entryY=0;entryDx=0;entryDy=0;fontFamily=Helvetica;" edge="1" parent="1" source="EupSJTAs6RmiVeXPUSCt-44" target="EupSJTAs6RmiVeXPUSCt-45">
          <mxGeometry relative="1" as="geometry"/>
        </mxCell>
        <mxCell id="EupSJTAs6RmiVeXPUSCt-44" value="" style="shape=parallelogram;perimeter=parallelogramPerimeter;whiteSpace=wrap;html=1;fontFamily=Helvetica;" vertex="1" parent="1">
          <mxGeometry x="720" y="1490" width="120" height="60" as="geometry"/>
        </mxCell>
        <mxCell id="EupSJTAs6RmiVeXPUSCt-198" style="edgeStyle=orthogonalEdgeStyle;rounded=0;orthogonalLoop=1;jettySize=auto;html=1;exitX=0.5;exitY=1;exitDx=0;exitDy=0;entryX=0.5;entryY=0;entryDx=0;entryDy=0;fontFamily=Helvetica;" edge="1" parent="1" source="EupSJTAs6RmiVeXPUSCt-45" target="EupSJTAs6RmiVeXPUSCt-46">
          <mxGeometry relative="1" as="geometry"/>
        </mxCell>
        <mxCell id="EupSJTAs6RmiVeXPUSCt-45" value="" style="shape=parallelogram;perimeter=parallelogramPerimeter;whiteSpace=wrap;html=1;fontFamily=Helvetica;" vertex="1" parent="1">
          <mxGeometry x="715" y="1570" width="130" height="60" as="geometry"/>
        </mxCell>
        <mxCell id="EupSJTAs6RmiVeXPUSCt-199" style="edgeStyle=orthogonalEdgeStyle;rounded=0;orthogonalLoop=1;jettySize=auto;html=1;exitX=0.5;exitY=1;exitDx=0;exitDy=0;entryX=0.5;entryY=0;entryDx=0;entryDy=0;fontFamily=Helvetica;" edge="1" parent="1" source="EupSJTAs6RmiVeXPUSCt-46" target="EupSJTAs6RmiVeXPUSCt-47">
          <mxGeometry relative="1" as="geometry"/>
        </mxCell>
        <mxCell id="EupSJTAs6RmiVeXPUSCt-46" value="" style="rounded=0;whiteSpace=wrap;html=1;fontFamily=Helvetica;" vertex="1" parent="1">
          <mxGeometry x="720" y="1650" width="120" height="60" as="geometry"/>
        </mxCell>
        <mxCell id="EupSJTAs6RmiVeXPUSCt-201" style="edgeStyle=orthogonalEdgeStyle;rounded=0;orthogonalLoop=1;jettySize=auto;html=1;exitX=0.5;exitY=1;exitDx=0;exitDy=0;entryX=0.5;entryY=0;entryDx=0;entryDy=0;fontFamily=Helvetica;" edge="1" parent="1" source="EupSJTAs6RmiVeXPUSCt-47" target="EupSJTAs6RmiVeXPUSCt-48">
          <mxGeometry relative="1" as="geometry"/>
        </mxCell>
        <mxCell id="EupSJTAs6RmiVeXPUSCt-47" value="" style="rhombus;whiteSpace=wrap;html=1;fontFamily=Helvetica;" vertex="1" parent="1">
          <mxGeometry x="740" y="1730" width="80" height="80" as="geometry"/>
        </mxCell>
        <mxCell id="EupSJTAs6RmiVeXPUSCt-48" value="" style="shape=parallelogram;perimeter=parallelogramPerimeter;whiteSpace=wrap;html=1;fontFamily=Helvetica;" vertex="1" parent="1">
          <mxGeometry x="521.25" y="1830" width="517.5" height="60" as="geometry"/>
        </mxCell>
        <mxCell id="EupSJTAs6RmiVeXPUSCt-202" style="edgeStyle=orthogonalEdgeStyle;rounded=0;orthogonalLoop=1;jettySize=auto;html=1;exitX=0.5;exitY=1;exitDx=0;exitDy=0;entryX=0.5;entryY=0;entryDx=0;entryDy=0;fontFamily=Helvetica;" edge="1" parent="1" source="EupSJTAs6RmiVeXPUSCt-51" target="EupSJTAs6RmiVeXPUSCt-52">
          <mxGeometry relative="1" as="geometry"/>
        </mxCell>
        <mxCell id="EupSJTAs6RmiVeXPUSCt-51" value="" style="rounded=0;whiteSpace=wrap;html=1;fontFamily=Helvetica;" vertex="1" parent="1">
          <mxGeometry x="720" y="1910" width="120" height="60" as="geometry"/>
        </mxCell>
        <mxCell id="EupSJTAs6RmiVeXPUSCt-204" style="edgeStyle=orthogonalEdgeStyle;rounded=0;orthogonalLoop=1;jettySize=auto;html=1;exitX=0.5;exitY=1;exitDx=0;exitDy=0;entryX=0.5;entryY=0;entryDx=0;entryDy=0;fontFamily=Helvetica;" edge="1" parent="1" source="EupSJTAs6RmiVeXPUSCt-52" target="EupSJTAs6RmiVeXPUSCt-53">
          <mxGeometry relative="1" as="geometry"/>
        </mxCell>
        <mxCell id="EupSJTAs6RmiVeXPUSCt-52" value="" style="rounded=0;whiteSpace=wrap;html=1;fontFamily=Helvetica;" vertex="1" parent="1">
          <mxGeometry x="720" y="1990" width="120" height="60" as="geometry"/>
        </mxCell>
        <mxCell id="EupSJTAs6RmiVeXPUSCt-53" value="" style="rounded=0;whiteSpace=wrap;html=1;fontFamily=Helvetica;" vertex="1" parent="1">
          <mxGeometry x="720" y="2070" width="120" height="60" as="geometry"/>
        </mxCell>
        <mxCell id="EupSJTAs6RmiVeXPUSCt-54" value="" style="shape=parallelogram;perimeter=parallelogramPerimeter;whiteSpace=wrap;html=1;fontFamily=Helvetica;" vertex="1" parent="1">
          <mxGeometry x="725" y="2220" width="120" height="60" as="geometry"/>
        </mxCell>
        <mxCell id="EupSJTAs6RmiVeXPUSCt-237" style="edgeStyle=orthogonalEdgeStyle;rounded=0;orthogonalLoop=1;jettySize=auto;html=1;exitX=0.5;exitY=1;exitDx=0;exitDy=0;entryX=0.5;entryY=0;entryDx=0;entryDy=0;fontFamily=Helvetica;" edge="1" parent="1" source="EupSJTAs6RmiVeXPUSCt-55" target="EupSJTAs6RmiVeXPUSCt-56">
          <mxGeometry relative="1" as="geometry"/>
        </mxCell>
        <mxCell id="EupSJTAs6RmiVeXPUSCt-55" value="" style="rounded=0;whiteSpace=wrap;html=1;fontFamily=Helvetica;" vertex="1" parent="1">
          <mxGeometry x="450" y="2240" width="180" height="60" as="geometry"/>
        </mxCell>
        <mxCell id="EupSJTAs6RmiVeXPUSCt-238" style="edgeStyle=orthogonalEdgeStyle;rounded=0;orthogonalLoop=1;jettySize=auto;html=1;exitX=0.5;exitY=1;exitDx=0;exitDy=0;entryX=0.5;entryY=0;entryDx=0;entryDy=0;fontFamily=Helvetica;" edge="1" parent="1" source="EupSJTAs6RmiVeXPUSCt-56" target="EupSJTAs6RmiVeXPUSCt-57">
          <mxGeometry relative="1" as="geometry"/>
        </mxCell>
        <mxCell id="EupSJTAs6RmiVeXPUSCt-56" value="" style="shape=hexagon;perimeter=hexagonPerimeter2;whiteSpace=wrap;html=1;fontFamily=Helvetica;" vertex="1" parent="1">
          <mxGeometry x="470" y="2320" width="120" height="80" as="geometry"/>
        </mxCell>
        <mxCell id="EupSJTAs6RmiVeXPUSCt-239" style="edgeStyle=orthogonalEdgeStyle;rounded=0;orthogonalLoop=1;jettySize=auto;html=1;exitX=0.5;exitY=1;exitDx=0;exitDy=0;entryX=0.5;entryY=0;entryDx=0;entryDy=0;fontFamily=Helvetica;" edge="1" parent="1" source="EupSJTAs6RmiVeXPUSCt-57" target="EupSJTAs6RmiVeXPUSCt-58">
          <mxGeometry relative="1" as="geometry"/>
        </mxCell>
        <mxCell id="EupSJTAs6RmiVeXPUSCt-57" value="" style="shape=hexagon;perimeter=hexagonPerimeter2;whiteSpace=wrap;html=1;fontFamily=Helvetica;" vertex="1" parent="1">
          <mxGeometry x="470" y="2420" width="120" height="80" as="geometry"/>
        </mxCell>
        <mxCell id="EupSJTAs6RmiVeXPUSCt-240" style="edgeStyle=orthogonalEdgeStyle;rounded=0;orthogonalLoop=1;jettySize=auto;html=1;exitX=0.5;exitY=1;exitDx=0;exitDy=0;entryX=0.5;entryY=0;entryDx=0;entryDy=0;fontFamily=Helvetica;" edge="1" parent="1" source="EupSJTAs6RmiVeXPUSCt-58" target="EupSJTAs6RmiVeXPUSCt-60">
          <mxGeometry relative="1" as="geometry"/>
        </mxCell>
        <mxCell id="EupSJTAs6RmiVeXPUSCt-58" value="" style="shape=hexagon;perimeter=hexagonPerimeter2;whiteSpace=wrap;html=1;fontFamily=Helvetica;" vertex="1" parent="1">
          <mxGeometry x="470" y="2520" width="120" height="80" as="geometry"/>
        </mxCell>
        <mxCell id="EupSJTAs6RmiVeXPUSCt-241" style="edgeStyle=orthogonalEdgeStyle;rounded=0;orthogonalLoop=1;jettySize=auto;html=1;exitX=0.5;exitY=1;exitDx=0;exitDy=0;entryX=0.5;entryY=0;entryDx=0;entryDy=0;fontFamily=Helvetica;" edge="1" parent="1" source="EupSJTAs6RmiVeXPUSCt-60" target="EupSJTAs6RmiVeXPUSCt-61">
          <mxGeometry relative="1" as="geometry"/>
        </mxCell>
        <mxCell id="EupSJTAs6RmiVeXPUSCt-60" value="" style="shape=hexagon;perimeter=hexagonPerimeter2;whiteSpace=wrap;html=1;fontFamily=Helvetica;" vertex="1" parent="1">
          <mxGeometry x="470" y="2620" width="120" height="80" as="geometry"/>
        </mxCell>
        <mxCell id="EupSJTAs6RmiVeXPUSCt-242" style="edgeStyle=orthogonalEdgeStyle;rounded=0;orthogonalLoop=1;jettySize=auto;html=1;exitX=0.5;exitY=1;exitDx=0;exitDy=0;entryX=0.558;entryY=0;entryDx=0;entryDy=0;entryPerimeter=0;fontFamily=Helvetica;" edge="1" parent="1" source="EupSJTAs6RmiVeXPUSCt-61" target="EupSJTAs6RmiVeXPUSCt-62">
          <mxGeometry relative="1" as="geometry"/>
        </mxCell>
        <mxCell id="EupSJTAs6RmiVeXPUSCt-61" value="" style="rhombus;whiteSpace=wrap;html=1;fontFamily=Helvetica;" vertex="1" parent="1">
          <mxGeometry x="470" y="2720" width="130" height="80" as="geometry"/>
        </mxCell>
        <mxCell id="EupSJTAs6RmiVeXPUSCt-62" value="" style="rounded=0;whiteSpace=wrap;html=1;fontFamily=Helvetica;" vertex="1" parent="1">
          <mxGeometry x="470" y="2820" width="120" height="50" as="geometry"/>
        </mxCell>
        <mxCell id="EupSJTAs6RmiVeXPUSCt-63" value="" style="rounded=0;whiteSpace=wrap;html=1;fontFamily=Helvetica;" vertex="1" parent="1">
          <mxGeometry x="470" y="2920" width="120" height="40" as="geometry"/>
        </mxCell>
        <mxCell id="EupSJTAs6RmiVeXPUSCt-282" style="edgeStyle=orthogonalEdgeStyle;rounded=0;orthogonalLoop=1;jettySize=auto;html=1;exitX=0.5;exitY=1;exitDx=0;exitDy=0;entryX=0.5;entryY=0;entryDx=0;entryDy=0;fontFamily=Helvetica;" edge="1" parent="1" source="EupSJTAs6RmiVeXPUSCt-64" target="EupSJTAs6RmiVeXPUSCt-65">
          <mxGeometry relative="1" as="geometry"/>
        </mxCell>
        <mxCell id="EupSJTAs6RmiVeXPUSCt-64" value="" style="shape=hexagon;perimeter=hexagonPerimeter2;whiteSpace=wrap;html=1;fontFamily=Helvetica;" vertex="1" parent="1">
          <mxGeometry x="473.13" y="3020" width="120" height="60" as="geometry"/>
        </mxCell>
        <mxCell id="EupSJTAs6RmiVeXPUSCt-283" style="edgeStyle=orthogonalEdgeStyle;rounded=0;orthogonalLoop=1;jettySize=auto;html=1;exitX=0.5;exitY=1;exitDx=0;exitDy=0;entryX=0.5;entryY=0;entryDx=0;entryDy=0;fontFamily=Helvetica;" edge="1" parent="1" source="EupSJTAs6RmiVeXPUSCt-65" target="EupSJTAs6RmiVeXPUSCt-66">
          <mxGeometry relative="1" as="geometry"/>
        </mxCell>
        <mxCell id="EupSJTAs6RmiVeXPUSCt-65" value="" style="rhombus;whiteSpace=wrap;html=1;fontFamily=Helvetica;" vertex="1" parent="1">
          <mxGeometry x="427.13" y="3105" width="222" height="60" as="geometry"/>
        </mxCell>
        <mxCell id="EupSJTAs6RmiVeXPUSCt-66" value="" style="rounded=0;whiteSpace=wrap;html=1;fontFamily=Helvetica;" vertex="1" parent="1">
          <mxGeometry x="439.06" y="3185" width="201.87" height="60" as="geometry"/>
        </mxCell>
        <mxCell id="EupSJTAs6RmiVeXPUSCt-300" style="edgeStyle=orthogonalEdgeStyle;rounded=0;orthogonalLoop=1;jettySize=auto;html=1;exitX=0.5;exitY=1;exitDx=0;exitDy=0;entryX=0.5;entryY=0;entryDx=0;entryDy=0;fontFamily=Helvetica;" edge="1" parent="1" source="EupSJTAs6RmiVeXPUSCt-67" target="EupSJTAs6RmiVeXPUSCt-68">
          <mxGeometry relative="1" as="geometry"/>
        </mxCell>
        <mxCell id="EupSJTAs6RmiVeXPUSCt-67" value="" style="shape=hexagon;perimeter=hexagonPerimeter2;whiteSpace=wrap;html=1;fontFamily=Helvetica;" vertex="1" parent="1">
          <mxGeometry x="470" y="3280" width="120" height="60" as="geometry"/>
        </mxCell>
        <mxCell id="EupSJTAs6RmiVeXPUSCt-68" value="" style="shape=parallelogram;perimeter=parallelogramPerimeter;whiteSpace=wrap;html=1;fontFamily=Helvetica;" vertex="1" parent="1">
          <mxGeometry x="447.5" y="3360" width="165" height="60" as="geometry"/>
        </mxCell>
        <mxCell id="EupSJTAs6RmiVeXPUSCt-69" value="Конец" style="rounded=1;whiteSpace=wrap;html=1;fontFamily=Helvetica;" vertex="1" parent="1">
          <mxGeometry x="460" y="3470" width="120" height="60" as="geometry"/>
        </mxCell>
        <mxCell id="EupSJTAs6RmiVeXPUSCt-70" value="setlocale(LC_ALL, &quot;RUSSIAN&quot;)" style="text;html=1;fontFamily=Helvetica;" vertex="1" parent="1">
          <mxGeometry x="440" y="170" width="190" height="30" as="geometry"/>
        </mxCell>
        <mxCell id="EupSJTAs6RmiVeXPUSCt-71" value="&amp;nbsp;M, p, i, j, k = 0" style="text;html=1;fontFamily=Helvetica;" vertex="1" parent="1">
          <mxGeometry x="473" y="220" width="110" height="30" as="geometry"/>
        </mxCell>
        <mxCell id="EupSJTAs6RmiVeXPUSCt-72" value="" style="rounded=0;whiteSpace=wrap;html=1;fontFamily=Helvetica;" vertex="1" parent="1">
          <mxGeometry x="330" y="270" width="400" height="50" as="geometry"/>
        </mxCell>
        <mxCell id="EupSJTAs6RmiVeXPUSCt-149" style="edgeStyle=orthogonalEdgeStyle;rounded=0;orthogonalLoop=1;jettySize=auto;html=1;exitX=0.5;exitY=1;exitDx=0;exitDy=0;entryX=0.5;entryY=0;entryDx=0;entryDy=0;fontFamily=Helvetica;" edge="1" parent="1" source="EupSJTAs6RmiVeXPUSCt-73" target="EupSJTAs6RmiVeXPUSCt-16">
          <mxGeometry relative="1" as="geometry"/>
        </mxCell>
        <mxCell id="EupSJTAs6RmiVeXPUSCt-73" value="alp[20] = { &#39;b&#39;, &#39;c&#39;, &#39;d&#39;, &#39;f&#39;, &#39;g&#39;, &#39;h&#39;, &#39;j&#39;, &#39;k&#39;, &#39;l&#39;, &#39;m&#39;, &#39;n&#39;, &#39;p&#39;, &#39;q&#39;, &#39;r&#39;, &#39;s&#39;, &#39;t&#39;, &#39;v&#39;, &#39;w&#39;, &#39;x&#39;, &#39;z&#39; }" style="text;html=1;fontFamily=Helvetica;" vertex="1" parent="1">
          <mxGeometry x="335" y="285" width="400" height="30" as="geometry"/>
        </mxCell>
        <mxCell id="EupSJTAs6RmiVeXPUSCt-77" value="cout &lt;&lt; &quot;Введите размер массива M[2,5]: &quot;" style="text;html=1;fontFamily=Helvetica;" vertex="1" parent="1">
          <mxGeometry x="420" y="365" width="260" height="30" as="geometry"/>
        </mxCell>
        <mxCell id="EupSJTAs6RmiVeXPUSCt-78" value="cin &gt;&gt; M" style="text;html=1;fontFamily=Helvetica;" vertex="1" parent="1">
          <mxGeometry x="495" y="445" width="70" height="30" as="geometry"/>
        </mxCell>
        <mxCell id="EupSJTAs6RmiVeXPUSCt-139" style="edgeStyle=orthogonalEdgeStyle;rounded=0;orthogonalLoop=1;jettySize=auto;html=1;exitX=0.5;exitY=1;exitDx=0;exitDy=0;entryX=0.5;entryY=0;entryDx=0;entryDy=0;fontFamily=Helvetica;" edge="1" parent="1" source="EupSJTAs6RmiVeXPUSCt-79" target="EupSJTAs6RmiVeXPUSCt-29">
          <mxGeometry relative="1" as="geometry"/>
        </mxCell>
        <mxCell id="EupSJTAs6RmiVeXPUSCt-79" value="" style="rounded=0;whiteSpace=wrap;html=1;fontFamily=Helvetica;" vertex="1" parent="1">
          <mxGeometry x="430" y="510" width="200" height="60" as="geometry"/>
        </mxCell>
        <mxCell id="EupSJTAs6RmiVeXPUSCt-80" value="* mass = new char* [M]" style="text;html=1;fontFamily=Helvetica;" vertex="1" parent="1">
          <mxGeometry x="460" y="525" width="150" height="30" as="geometry"/>
        </mxCell>
        <mxCell id="EupSJTAs6RmiVeXPUSCt-82" value="M &lt; 2 || M &gt; 5" style="text;html=1;fontFamily=Helvetica;" vertex="1" parent="1">
          <mxGeometry x="485" y="617.5" width="100" height="30" as="geometry"/>
        </mxCell>
        <mxCell id="EupSJTAs6RmiVeXPUSCt-142" style="edgeStyle=orthogonalEdgeStyle;rounded=0;orthogonalLoop=1;jettySize=auto;html=1;exitX=0.5;exitY=1;exitDx=0;exitDy=0;entryX=0.5;entryY=0;entryDx=0;entryDy=0;fontFamily=Helvetica;" edge="1" parent="1" source="EupSJTAs6RmiVeXPUSCt-83" target="EupSJTAs6RmiVeXPUSCt-30">
          <mxGeometry relative="1" as="geometry"/>
        </mxCell>
        <mxCell id="EupSJTAs6RmiVeXPUSCt-83" value="" style="rounded=0;whiteSpace=wrap;html=1;fontFamily=Helvetica;" vertex="1" parent="1">
          <mxGeometry x="447.5" y="740" width="165" height="40" as="geometry"/>
        </mxCell>
        <mxCell id="EupSJTAs6RmiVeXPUSCt-141" style="edgeStyle=orthogonalEdgeStyle;rounded=0;orthogonalLoop=1;jettySize=auto;html=1;exitX=0.5;exitY=1;exitDx=0;exitDy=0;entryX=0.5;entryY=0;entryDx=0;entryDy=0;fontFamily=Helvetica;" edge="1" parent="1" source="EupSJTAs6RmiVeXPUSCt-87" target="EupSJTAs6RmiVeXPUSCt-83">
          <mxGeometry relative="1" as="geometry"/>
        </mxCell>
        <mxCell id="EupSJTAs6RmiVeXPUSCt-87" value="cout &lt;&lt; &quot;Введите М в диапазоне [2,5] и повторите попытку еще раз:&quot;" style="text;html=1;fontFamily=Helvetica;" vertex="1" parent="1">
          <mxGeometry x="335" y="690" width="410" height="30" as="geometry"/>
        </mxCell>
        <mxCell id="EupSJTAs6RmiVeXPUSCt-88" value="M = 0" style="text;html=1;fontFamily=Helvetica;" vertex="1" parent="1">
          <mxGeometry x="505" y="745" width="50" height="30" as="geometry"/>
        </mxCell>
        <mxCell id="EupSJTAs6RmiVeXPUSCt-89" value="cin &gt;&gt; M" style="text;html=1;fontFamily=Helvetica;" vertex="1" parent="1">
          <mxGeometry x="490" y="805" width="70" height="30" as="geometry"/>
        </mxCell>
        <mxCell id="EupSJTAs6RmiVeXPUSCt-90" value="cout &lt;&lt; &quot;\n&quot;" style="text;html=1;fontFamily=Helvetica;" vertex="1" parent="1">
          <mxGeometry x="480" y="865" width="90" height="30" as="geometry"/>
        </mxCell>
        <mxCell id="EupSJTAs6RmiVeXPUSCt-98" value="cout &lt;&lt; &quot; Матрица заполняется сама (1-й вариант), или лично (2-й вариант)?\n&quot;" style="text;html=1;fontFamily=Helvetica;" vertex="1" parent="1">
          <mxGeometry x="305" y="930" width="470" height="30" as="geometry"/>
        </mxCell>
        <mxCell id="EupSJTAs6RmiVeXPUSCt-99" value="" style="shape=parallelogram;perimeter=parallelogramPerimeter;whiteSpace=wrap;html=1;fontFamily=Helvetica;" vertex="1" parent="1">
          <mxGeometry x="295" y="990" width="425" height="40" as="geometry"/>
        </mxCell>
        <mxCell id="EupSJTAs6RmiVeXPUSCt-169" style="edgeStyle=orthogonalEdgeStyle;rounded=0;orthogonalLoop=1;jettySize=auto;html=1;exitX=0.5;exitY=1;exitDx=0;exitDy=0;entryX=0.5;entryY=0;entryDx=0;entryDy=0;fontFamily=Helvetica;" edge="1" parent="1" source="EupSJTAs6RmiVeXPUSCt-101" target="EupSJTAs6RmiVeXPUSCt-103">
          <mxGeometry relative="1" as="geometry"/>
        </mxCell>
        <mxCell id="EupSJTAs6RmiVeXPUSCt-101" value="cout &lt;&lt; &quot;Если 1-й вариант, нажмите 1, если второй - 2: &quot;" style="text;html=1;fontFamily=Helvetica;" vertex="1" parent="1">
          <mxGeometry x="350" y="1000" width="340" height="30" as="geometry"/>
        </mxCell>
        <mxCell id="EupSJTAs6RmiVeXPUSCt-102" value="" style="shape=parallelogram;perimeter=parallelogramPerimeter;whiteSpace=wrap;html=1;fontFamily=Helvetica;" vertex="1" parent="1">
          <mxGeometry x="440" y="1050" width="160" height="30" as="geometry"/>
        </mxCell>
        <mxCell id="EupSJTAs6RmiVeXPUSCt-170" style="edgeStyle=orthogonalEdgeStyle;rounded=0;orthogonalLoop=1;jettySize=auto;html=1;exitX=0.5;exitY=1;exitDx=0;exitDy=0;entryX=0.5;entryY=0;entryDx=0;entryDy=0;fontFamily=Helvetica;" edge="1" parent="1" source="EupSJTAs6RmiVeXPUSCt-103" target="EupSJTAs6RmiVeXPUSCt-106">
          <mxGeometry relative="1" as="geometry"/>
        </mxCell>
        <mxCell id="EupSJTAs6RmiVeXPUSCt-103" value="cin &gt;&gt; p" style="text;html=1;fontFamily=Helvetica;" vertex="1" parent="1">
          <mxGeometry x="490" y="1050" width="70" height="30" as="geometry"/>
        </mxCell>
        <mxCell id="EupSJTAs6RmiVeXPUSCt-104" value="" style="shape=parallelogram;perimeter=parallelogramPerimeter;whiteSpace=wrap;html=1;fontFamily=Helvetica;" vertex="1" parent="1">
          <mxGeometry x="445" y="1100" width="140" height="30" as="geometry"/>
        </mxCell>
        <mxCell id="EupSJTAs6RmiVeXPUSCt-172" style="edgeStyle=orthogonalEdgeStyle;rounded=0;orthogonalLoop=1;jettySize=auto;html=1;exitX=0.5;exitY=1;exitDx=0;exitDy=0;entryX=0.5;entryY=0;entryDx=0;entryDy=0;fontFamily=Helvetica;" edge="1" parent="1" source="EupSJTAs6RmiVeXPUSCt-106" target="EupSJTAs6RmiVeXPUSCt-33">
          <mxGeometry relative="1" as="geometry"/>
        </mxCell>
        <mxCell id="EupSJTAs6RmiVeXPUSCt-106" value="cout &lt;&lt; &quot;\n&quot;" style="text;html=1;fontFamily=Helvetica;" vertex="1" parent="1">
          <mxGeometry x="480" y="1100" width="90" height="30" as="geometry"/>
        </mxCell>
        <mxCell id="EupSJTAs6RmiVeXPUSCt-107" value="p == 1" style="text;html=1;fontFamily=Helvetica;" vertex="1" parent="1">
          <mxGeometry x="500" y="1160" width="60" height="30" as="geometry"/>
        </mxCell>
        <mxCell id="EupSJTAs6RmiVeXPUSCt-108" value="* mass = new char* [M]" style="text;html=1;fontFamily=Helvetica;" vertex="1" parent="1">
          <mxGeometry x="200" y="1225" width="150" height="30" as="geometry"/>
        </mxCell>
        <mxCell id="EupSJTAs6RmiVeXPUSCt-109" value="i = 0; i &lt; M; i++" style="text;html=1;fontFamily=Helvetica;" vertex="1" parent="1">
          <mxGeometry x="225" y="1315" width="100" height="30" as="geometry"/>
        </mxCell>
        <mxCell id="EupSJTAs6RmiVeXPUSCt-110" value="j = 0; j &lt; M; j++" style="text;html=1;fontFamily=Helvetica;" vertex="1" parent="1">
          <mxGeometry x="225" y="1415" width="100" height="30" as="geometry"/>
        </mxCell>
        <mxCell id="EupSJTAs6RmiVeXPUSCt-111" value="mass[i][j] = &#39;a&#39; + rand() % 26" style="text;html=1;fontFamily=Helvetica;" vertex="1" parent="1">
          <mxGeometry x="200" y="1505" width="180" height="30" as="geometry"/>
        </mxCell>
        <mxCell id="EupSJTAs6RmiVeXPUSCt-112" value="mass[M - 1] = &#39;\0&#39;" style="text;html=1;fontFamily=Helvetica;" vertex="1" parent="1">
          <mxGeometry x="215" y="1585" width="120" height="30" as="geometry"/>
        </mxCell>
        <mxCell id="EupSJTAs6RmiVeXPUSCt-113" value="cout &lt;&lt; mass[i][j] &lt;&lt; &quot;\t&quot;" style="text;html=1;fontFamily=Helvetica;" vertex="1" parent="1">
          <mxGeometry x="210" y="1670" width="150" height="30" as="geometry"/>
        </mxCell>
        <mxCell id="EupSJTAs6RmiVeXPUSCt-114" value="cout &lt;&lt; &quot;Введите любые 4 буквы английского алфавита: \n&quot;" style="text;html=1;fontFamily=Helvetica;" vertex="1" parent="1">
          <mxGeometry x="610" y="1230" width="360" height="30" as="geometry"/>
        </mxCell>
        <mxCell id="EupSJTAs6RmiVeXPUSCt-115" value="i = 0; i &lt; M; i++" style="text;html=1;fontFamily=Helvetica;" vertex="1" parent="1">
          <mxGeometry x="735" y="1315" width="100" height="30" as="geometry"/>
        </mxCell>
        <mxCell id="EupSJTAs6RmiVeXPUSCt-116" value="j = 0; j &lt; M; j++" style="text;html=1;fontFamily=Helvetica;" vertex="1" parent="1">
          <mxGeometry x="740" y="1415" width="100" height="30" as="geometry"/>
        </mxCell>
        <mxCell id="EupSJTAs6RmiVeXPUSCt-117" value="cin &gt;&gt; mass[i][j]" style="text;html=1;fontFamily=Helvetica;" vertex="1" parent="1">
          <mxGeometry x="735" y="1505" width="110" height="30" as="geometry"/>
        </mxCell>
        <mxCell id="EupSJTAs6RmiVeXPUSCt-118" value="cout &lt;&lt; mass[i][j]" style="text;html=1;fontFamily=Helvetica;" vertex="1" parent="1">
          <mxGeometry x="730" y="1585" width="120" height="30" as="geometry"/>
        </mxCell>
        <mxCell id="EupSJTAs6RmiVeXPUSCt-119" value="k++" style="text;html=1;fontFamily=Helvetica;" vertex="1" parent="1">
          <mxGeometry x="755" y="1665" width="65" height="30" as="geometry"/>
        </mxCell>
        <mxCell id="EupSJTAs6RmiVeXPUSCt-120" value="k &gt; 4" style="text;html=1;fontFamily=Helvetica;" vertex="1" parent="1">
          <mxGeometry x="760" y="1755" width="50" height="30" as="geometry"/>
        </mxCell>
        <mxCell id="EupSJTAs6RmiVeXPUSCt-200" style="edgeStyle=orthogonalEdgeStyle;rounded=0;orthogonalLoop=1;jettySize=auto;html=1;exitX=0.5;exitY=1;exitDx=0;exitDy=0;entryX=0.5;entryY=0;entryDx=0;entryDy=0;fontFamily=Helvetica;" edge="1" parent="1" source="EupSJTAs6RmiVeXPUSCt-121" target="EupSJTAs6RmiVeXPUSCt-51">
          <mxGeometry relative="1" as="geometry"/>
        </mxCell>
        <mxCell id="EupSJTAs6RmiVeXPUSCt-121" value="cout &lt;&lt; &quot;ещё раз введите любые 4 буквы английского алфавита: \n&quot;" style="text;html=1;fontFamily=Helvetica;" vertex="1" parent="1">
          <mxGeometry x="580" y="1850" width="400" height="30" as="geometry"/>
        </mxCell>
        <mxCell id="EupSJTAs6RmiVeXPUSCt-122" value="k = 0" style="text;html=1;fontFamily=Helvetica;" vertex="1" parent="1">
          <mxGeometry x="760" y="1925" width="50" height="30" as="geometry"/>
        </mxCell>
        <mxCell id="EupSJTAs6RmiVeXPUSCt-123" value="i = 0" style="text;html=1;fontFamily=Helvetica;" vertex="1" parent="1">
          <mxGeometry x="760" y="2005" width="50" height="30" as="geometry"/>
        </mxCell>
        <mxCell id="EupSJTAs6RmiVeXPUSCt-124" value="j = 0" style="text;html=1;fontFamily=Helvetica;" vertex="1" parent="1">
          <mxGeometry x="760" y="2085" width="50" height="30" as="geometry"/>
        </mxCell>
        <mxCell id="EupSJTAs6RmiVeXPUSCt-125" value="cout &lt;&lt; endl" style="text;html=1;fontFamily=Helvetica;" vertex="1" parent="1">
          <mxGeometry x="742.5" y="2240" width="90" height="30" as="geometry"/>
        </mxCell>
        <mxCell id="EupSJTAs6RmiVeXPUSCt-126" value="newmass = new int[M]" style="text;html=1;fontFamily=Helvetica;" vertex="1" parent="1">
          <mxGeometry x="473" y="2255" width="150" height="30" as="geometry"/>
        </mxCell>
        <mxCell id="EupSJTAs6RmiVeXPUSCt-127" value="j = 0; j &lt; M; j++" style="text;html=1;fontFamily=Helvetica;" vertex="1" parent="1">
          <mxGeometry x="485" y="2345" width="100" height="30" as="geometry"/>
        </mxCell>
        <mxCell id="EupSJTAs6RmiVeXPUSCt-128" value="y = 0; y &lt; M; y++" style="text;html=1;fontFamily=Helvetica;" vertex="1" parent="1">
          <mxGeometry x="485" y="2445" width="110" height="30" as="geometry"/>
        </mxCell>
        <mxCell id="EupSJTAs6RmiVeXPUSCt-129" value="i = 0; i &lt; M; i++" style="text;html=1;fontFamily=Helvetica;" vertex="1" parent="1">
          <mxGeometry x="490" y="2545" width="100" height="30" as="geometry"/>
        </mxCell>
        <mxCell id="EupSJTAs6RmiVeXPUSCt-130" value="x = 0; x &lt; 20; x++" style="text;html=1;fontFamily=Helvetica;" vertex="1" parent="1">
          <mxGeometry x="485" y="2645" width="110" height="30" as="geometry"/>
        </mxCell>
        <mxCell id="EupSJTAs6RmiVeXPUSCt-131" value="mass[i][j] == alp[x]" style="text;html=1;fontFamily=Helvetica;" vertex="1" parent="1">
          <mxGeometry x="485" y="2745" width="120" height="30" as="geometry"/>
        </mxCell>
        <mxCell id="EupSJTAs6RmiVeXPUSCt-132" value="p++" style="text;html=1;fontFamily=Helvetica;" vertex="1" parent="1">
          <mxGeometry x="513.13" y="2835" width="50" height="30" as="geometry"/>
        </mxCell>
        <mxCell id="EupSJTAs6RmiVeXPUSCt-133" value="newmass[y] = p" style="text;html=1;fontFamily=Helvetica;" vertex="1" parent="1">
          <mxGeometry x="483.13" y="2927.5" width="110" height="25" as="geometry"/>
        </mxCell>
        <mxCell id="EupSJTAs6RmiVeXPUSCt-134" value="y = 0; y &lt; M; y++" style="text;html=1;fontFamily=Helvetica;" vertex="1" parent="1">
          <mxGeometry x="483.13" y="3030" width="86.87" height="30" as="geometry"/>
        </mxCell>
        <mxCell id="EupSJTAs6RmiVeXPUSCt-135" value="newmass[y] &lt; newmass[y + 1]" style="text;html=1;fontFamily=Helvetica;" vertex="1" parent="1">
          <mxGeometry x="453" y="3120" width="190" height="30" as="geometry"/>
        </mxCell>
        <mxCell id="EupSJTAs6RmiVeXPUSCt-136" value="swap(newmass[y], newmass[y + 1]" style="text;html=1;fontFamily=Helvetica;" vertex="1" parent="1">
          <mxGeometry x="440" y="3200" width="190" height="30" as="geometry"/>
        </mxCell>
        <mxCell id="EupSJTAs6RmiVeXPUSCt-137" value="y = 0; y &lt; M; y++" style="text;html=1;fontFamily=Helvetica;" vertex="1" parent="1">
          <mxGeometry x="485" y="3295" width="85" height="30" as="geometry"/>
        </mxCell>
        <mxCell id="EupSJTAs6RmiVeXPUSCt-138" value="cout &lt;&lt; newmass[y]" style="text;html=1;fontFamily=Helvetica;" vertex="1" parent="1">
          <mxGeometry x="465" y="3375" width="130" height="30" as="geometry"/>
        </mxCell>
        <mxCell id="EupSJTAs6RmiVeXPUSCt-154" value="" style="endArrow=none;html=1;fontFamily=Helvetica;" edge="1" parent="1">
          <mxGeometry width="50" height="50" relative="1" as="geometry">
            <mxPoint x="160" y="850" as="sourcePoint"/>
            <mxPoint x="470" y="850" as="targetPoint"/>
          </mxGeometry>
        </mxCell>
        <mxCell id="EupSJTAs6RmiVeXPUSCt-155" value="" style="endArrow=none;html=1;fontFamily=Helvetica;entryX=0.236;entryY=1;entryDx=0;entryDy=0;entryPerimeter=0;" edge="1" parent="1" target="EupSJTAs6RmiVeXPUSCt-30">
          <mxGeometry width="50" height="50" relative="1" as="geometry">
            <mxPoint x="470" y="850" as="sourcePoint"/>
            <mxPoint x="490" y="840" as="targetPoint"/>
          </mxGeometry>
        </mxCell>
        <mxCell id="EupSJTAs6RmiVeXPUSCt-157" value="" style="endArrow=none;html=1;fontFamily=Helvetica;" edge="1" parent="1">
          <mxGeometry width="50" height="50" relative="1" as="geometry">
            <mxPoint x="160" y="850" as="sourcePoint"/>
            <mxPoint x="160" y="580" as="targetPoint"/>
          </mxGeometry>
        </mxCell>
        <mxCell id="EupSJTAs6RmiVeXPUSCt-160" value="" style="endArrow=classic;html=1;fontFamily=Helvetica;" edge="1" parent="1">
          <mxGeometry width="50" height="50" relative="1" as="geometry">
            <mxPoint x="160" y="580" as="sourcePoint"/>
            <mxPoint x="530" y="580" as="targetPoint"/>
          </mxGeometry>
        </mxCell>
        <mxCell id="EupSJTAs6RmiVeXPUSCt-163" value="" style="endArrow=none;html=1;fontFamily=Helvetica;exitX=1;exitY=0.5;exitDx=0;exitDy=0;" edge="1" parent="1" source="EupSJTAs6RmiVeXPUSCt-29">
          <mxGeometry width="50" height="50" relative="1" as="geometry">
            <mxPoint x="610" y="660" as="sourcePoint"/>
            <mxPoint x="840" y="633" as="targetPoint"/>
          </mxGeometry>
        </mxCell>
        <mxCell id="EupSJTAs6RmiVeXPUSCt-164" value="" style="endArrow=none;html=1;fontFamily=Helvetica;" edge="1" parent="1">
          <mxGeometry width="50" height="50" relative="1" as="geometry">
            <mxPoint x="840" y="840" as="sourcePoint"/>
            <mxPoint x="840" y="630" as="targetPoint"/>
          </mxGeometry>
        </mxCell>
        <mxCell id="EupSJTAs6RmiVeXPUSCt-165" value="" style="endArrow=none;html=1;fontFamily=Helvetica;" edge="1" parent="1">
          <mxGeometry width="50" height="50" relative="1" as="geometry">
            <mxPoint x="520" y="840" as="sourcePoint"/>
            <mxPoint x="840" y="840" as="targetPoint"/>
          </mxGeometry>
        </mxCell>
        <mxCell id="EupSJTAs6RmiVeXPUSCt-166" value="" style="endArrow=classic;html=1;fontFamily=Helvetica;entryX=0.473;entryY=0.025;entryDx=0;entryDy=0;entryPerimeter=0;" edge="1" parent="1" target="EupSJTAs6RmiVeXPUSCt-22">
          <mxGeometry width="50" height="50" relative="1" as="geometry">
            <mxPoint x="520" y="840" as="sourcePoint"/>
            <mxPoint x="550" y="840" as="targetPoint"/>
          </mxGeometry>
        </mxCell>
        <mxCell id="EupSJTAs6RmiVeXPUSCt-182" value="" style="endArrow=none;html=1;fontFamily=Helvetica;entryX=0.25;entryY=1;entryDx=0;entryDy=0;" edge="1" parent="1" target="EupSJTAs6RmiVeXPUSCt-40">
          <mxGeometry width="50" height="50" relative="1" as="geometry">
            <mxPoint x="229" y="1770" as="sourcePoint"/>
            <mxPoint x="280" y="1730" as="targetPoint"/>
          </mxGeometry>
        </mxCell>
        <mxCell id="EupSJTAs6RmiVeXPUSCt-183" value="" style="endArrow=none;html=1;fontFamily=Helvetica;" edge="1" parent="1">
          <mxGeometry width="50" height="50" relative="1" as="geometry">
            <mxPoint x="110" y="1770" as="sourcePoint"/>
            <mxPoint x="230" y="1770" as="targetPoint"/>
          </mxGeometry>
        </mxCell>
        <mxCell id="EupSJTAs6RmiVeXPUSCt-184" value="" style="endArrow=none;html=1;fontFamily=Helvetica;" edge="1" parent="1">
          <mxGeometry width="50" height="50" relative="1" as="geometry">
            <mxPoint x="110" y="1770" as="sourcePoint"/>
            <mxPoint x="110" y="1430" as="targetPoint"/>
          </mxGeometry>
        </mxCell>
        <mxCell id="EupSJTAs6RmiVeXPUSCt-185" value="" style="endArrow=classic;html=1;fontFamily=Helvetica;entryX=0;entryY=0.5;entryDx=0;entryDy=0;" edge="1" parent="1" target="EupSJTAs6RmiVeXPUSCt-37">
          <mxGeometry width="50" height="50" relative="1" as="geometry">
            <mxPoint x="110" y="1430" as="sourcePoint"/>
            <mxPoint x="170" y="1410" as="targetPoint"/>
          </mxGeometry>
        </mxCell>
        <mxCell id="EupSJTAs6RmiVeXPUSCt-187" value="" style="endArrow=none;html=1;fontFamily=Helvetica;exitX=1;exitY=0.5;exitDx=0;exitDy=0;" edge="1" parent="1" source="EupSJTAs6RmiVeXPUSCt-37">
          <mxGeometry width="50" height="50" relative="1" as="geometry">
            <mxPoint x="360" y="1460" as="sourcePoint"/>
            <mxPoint x="410" y="1430" as="targetPoint"/>
          </mxGeometry>
        </mxCell>
        <mxCell id="EupSJTAs6RmiVeXPUSCt-188" value="" style="endArrow=none;html=1;fontFamily=Helvetica;" edge="1" parent="1">
          <mxGeometry width="50" height="50" relative="1" as="geometry">
            <mxPoint x="410" y="1800" as="sourcePoint"/>
            <mxPoint x="410" y="1430" as="targetPoint"/>
          </mxGeometry>
        </mxCell>
        <mxCell id="EupSJTAs6RmiVeXPUSCt-189" value="" style="endArrow=none;html=1;fontFamily=Helvetica;" edge="1" parent="1">
          <mxGeometry width="50" height="50" relative="1" as="geometry">
            <mxPoint x="80" y="1800" as="sourcePoint"/>
            <mxPoint x="410" y="1800" as="targetPoint"/>
          </mxGeometry>
        </mxCell>
        <mxCell id="EupSJTAs6RmiVeXPUSCt-190" value="" style="endArrow=none;html=1;fontFamily=Helvetica;" edge="1" parent="1">
          <mxGeometry width="50" height="50" relative="1" as="geometry">
            <mxPoint x="80" y="1800" as="sourcePoint"/>
            <mxPoint x="80" y="1330" as="targetPoint"/>
          </mxGeometry>
        </mxCell>
        <mxCell id="EupSJTAs6RmiVeXPUSCt-191" value="" style="endArrow=classic;html=1;fontFamily=Helvetica;entryX=0;entryY=0.5;entryDx=0;entryDy=0;" edge="1" parent="1" target="EupSJTAs6RmiVeXPUSCt-36">
          <mxGeometry width="50" height="50" relative="1" as="geometry">
            <mxPoint x="80" y="1330" as="sourcePoint"/>
            <mxPoint x="150" y="1310" as="targetPoint"/>
          </mxGeometry>
        </mxCell>
        <mxCell id="EupSJTAs6RmiVeXPUSCt-192" value="" style="endArrow=none;html=1;fontFamily=Helvetica;exitX=1;exitY=0.5;exitDx=0;exitDy=0;" edge="1" parent="1" source="EupSJTAs6RmiVeXPUSCt-36">
          <mxGeometry width="50" height="50" relative="1" as="geometry">
            <mxPoint x="390" y="1370" as="sourcePoint"/>
            <mxPoint x="440" y="1330" as="targetPoint"/>
          </mxGeometry>
        </mxCell>
        <mxCell id="EupSJTAs6RmiVeXPUSCt-193" value="" style="endArrow=none;html=1;fontFamily=Helvetica;" edge="1" parent="1">
          <mxGeometry width="50" height="50" relative="1" as="geometry">
            <mxPoint x="440" y="2200" as="sourcePoint"/>
            <mxPoint x="440" y="1330" as="targetPoint"/>
          </mxGeometry>
        </mxCell>
        <mxCell id="EupSJTAs6RmiVeXPUSCt-207" value="" style="endArrow=none;html=1;fontFamily=Helvetica;entryX=0.5;entryY=1;entryDx=0;entryDy=0;" edge="1" parent="1" target="EupSJTAs6RmiVeXPUSCt-53">
          <mxGeometry width="50" height="50" relative="1" as="geometry">
            <mxPoint x="780" y="2140" as="sourcePoint"/>
            <mxPoint x="690" y="2160" as="targetPoint"/>
          </mxGeometry>
        </mxCell>
        <mxCell id="EupSJTAs6RmiVeXPUSCt-208" value="" style="endArrow=none;html=1;fontFamily=Helvetica;" edge="1" parent="1">
          <mxGeometry width="50" height="50" relative="1" as="geometry">
            <mxPoint x="500" y="2140" as="sourcePoint"/>
            <mxPoint x="780" y="2140" as="targetPoint"/>
          </mxGeometry>
        </mxCell>
        <mxCell id="EupSJTAs6RmiVeXPUSCt-209" value="" style="endArrow=none;html=1;fontFamily=Helvetica;" edge="1" parent="1">
          <mxGeometry width="50" height="50" relative="1" as="geometry">
            <mxPoint x="500" y="2140" as="sourcePoint"/>
            <mxPoint x="500" y="1430" as="targetPoint"/>
          </mxGeometry>
        </mxCell>
        <mxCell id="EupSJTAs6RmiVeXPUSCt-210" value="" style="endArrow=classic;html=1;fontFamily=Helvetica;entryX=0;entryY=0.5;entryDx=0;entryDy=0;" edge="1" parent="1" target="EupSJTAs6RmiVeXPUSCt-43">
          <mxGeometry width="50" height="50" relative="1" as="geometry">
            <mxPoint x="500" y="1430" as="sourcePoint"/>
            <mxPoint x="580" y="1410" as="targetPoint"/>
          </mxGeometry>
        </mxCell>
        <mxCell id="EupSJTAs6RmiVeXPUSCt-212" value="" style="endArrow=none;html=1;fontFamily=Helvetica;exitX=1;exitY=0.5;exitDx=0;exitDy=0;" edge="1" parent="1" source="EupSJTAs6RmiVeXPUSCt-47">
          <mxGeometry width="50" height="50" relative="1" as="geometry">
            <mxPoint x="870" y="1790" as="sourcePoint"/>
            <mxPoint x="1060" y="1770" as="targetPoint"/>
          </mxGeometry>
        </mxCell>
        <mxCell id="EupSJTAs6RmiVeXPUSCt-213" value="" style="endArrow=none;html=1;fontFamily=Helvetica;" edge="1" parent="1">
          <mxGeometry width="50" height="50" relative="1" as="geometry">
            <mxPoint x="1060" y="2150" as="sourcePoint"/>
            <mxPoint x="1060" y="1770" as="targetPoint"/>
          </mxGeometry>
        </mxCell>
        <mxCell id="EupSJTAs6RmiVeXPUSCt-214" value="" style="endArrow=none;html=1;fontFamily=Helvetica;" edge="1" parent="1">
          <mxGeometry width="50" height="50" relative="1" as="geometry">
            <mxPoint x="770" y="2150" as="sourcePoint"/>
            <mxPoint x="1060" y="2150" as="targetPoint"/>
          </mxGeometry>
        </mxCell>
        <mxCell id="EupSJTAs6RmiVeXPUSCt-215" value="" style="endArrow=classic;html=1;fontFamily=Helvetica;" edge="1" parent="1">
          <mxGeometry width="50" height="50" relative="1" as="geometry">
            <mxPoint x="770" y="2150" as="sourcePoint"/>
            <mxPoint x="770" y="2140" as="targetPoint"/>
          </mxGeometry>
        </mxCell>
        <mxCell id="EupSJTAs6RmiVeXPUSCt-216" value="" style="endArrow=none;html=1;fontFamily=Helvetica;exitX=1;exitY=0.5;exitDx=0;exitDy=0;" edge="1" parent="1" source="EupSJTAs6RmiVeXPUSCt-116">
          <mxGeometry width="50" height="50" relative="1" as="geometry">
            <mxPoint x="910" y="1470" as="sourcePoint"/>
            <mxPoint x="1070" y="1430" as="targetPoint"/>
          </mxGeometry>
        </mxCell>
        <mxCell id="EupSJTAs6RmiVeXPUSCt-217" value="" style="endArrow=none;html=1;fontFamily=Helvetica;" edge="1" parent="1">
          <mxGeometry width="50" height="50" relative="1" as="geometry">
            <mxPoint x="1070" y="2160" as="sourcePoint"/>
            <mxPoint x="1070" y="1430" as="targetPoint"/>
          </mxGeometry>
        </mxCell>
        <mxCell id="EupSJTAs6RmiVeXPUSCt-219" value="" style="endArrow=none;html=1;fontFamily=Helvetica;" edge="1" parent="1">
          <mxGeometry width="50" height="50" relative="1" as="geometry">
            <mxPoint x="480" y="2160" as="sourcePoint"/>
            <mxPoint x="1070" y="2160" as="targetPoint"/>
          </mxGeometry>
        </mxCell>
        <mxCell id="EupSJTAs6RmiVeXPUSCt-220" value="" style="endArrow=none;html=1;fontFamily=Helvetica;" edge="1" parent="1">
          <mxGeometry width="50" height="50" relative="1" as="geometry">
            <mxPoint x="480" y="2160" as="sourcePoint"/>
            <mxPoint x="490" y="1330" as="targetPoint"/>
          </mxGeometry>
        </mxCell>
        <mxCell id="EupSJTAs6RmiVeXPUSCt-221" value="" style="endArrow=classic;html=1;fontFamily=Helvetica;entryX=0;entryY=0.5;entryDx=0;entryDy=0;" edge="1" parent="1" target="EupSJTAs6RmiVeXPUSCt-42">
          <mxGeometry width="50" height="50" relative="1" as="geometry">
            <mxPoint x="490" y="1330" as="sourcePoint"/>
            <mxPoint x="570" y="1310" as="targetPoint"/>
          </mxGeometry>
        </mxCell>
        <mxCell id="EupSJTAs6RmiVeXPUSCt-222" value="" style="endArrow=none;html=1;fontFamily=Helvetica;exitX=1;exitY=0.5;exitDx=0;exitDy=0;" edge="1" parent="1" source="EupSJTAs6RmiVeXPUSCt-42">
          <mxGeometry width="50" height="50" relative="1" as="geometry">
            <mxPoint x="890" y="1370" as="sourcePoint"/>
            <mxPoint x="1080" y="1330" as="targetPoint"/>
          </mxGeometry>
        </mxCell>
        <mxCell id="EupSJTAs6RmiVeXPUSCt-223" value="" style="endArrow=none;html=1;fontFamily=Helvetica;" edge="1" parent="1">
          <mxGeometry width="50" height="50" relative="1" as="geometry">
            <mxPoint x="1080" y="2190" as="sourcePoint"/>
            <mxPoint x="1080" y="1330" as="targetPoint"/>
          </mxGeometry>
        </mxCell>
        <mxCell id="EupSJTAs6RmiVeXPUSCt-224" value="" style="endArrow=none;html=1;fontFamily=Helvetica;" edge="1" parent="1">
          <mxGeometry width="50" height="50" relative="1" as="geometry">
            <mxPoint x="800" y="2190" as="sourcePoint"/>
            <mxPoint x="1080" y="2190" as="targetPoint"/>
          </mxGeometry>
        </mxCell>
        <mxCell id="EupSJTAs6RmiVeXPUSCt-225" value="" style="endArrow=classic;html=1;fontFamily=Helvetica;entryX=0.633;entryY=0;entryDx=0;entryDy=0;entryPerimeter=0;" edge="1" parent="1" target="EupSJTAs6RmiVeXPUSCt-54">
          <mxGeometry width="50" height="50" relative="1" as="geometry">
            <mxPoint x="800" y="2190" as="sourcePoint"/>
            <mxPoint x="840" y="2190" as="targetPoint"/>
          </mxGeometry>
        </mxCell>
        <mxCell id="EupSJTAs6RmiVeXPUSCt-226" value="" style="endArrow=none;html=1;fontFamily=Helvetica;exitX=1;exitY=0.25;exitDx=0;exitDy=0;" edge="1" parent="1" source="EupSJTAs6RmiVeXPUSCt-125">
          <mxGeometry width="50" height="50" relative="1" as="geometry">
            <mxPoint x="880" y="2280" as="sourcePoint"/>
            <mxPoint x="870" y="2248" as="targetPoint"/>
          </mxGeometry>
        </mxCell>
        <mxCell id="EupSJTAs6RmiVeXPUSCt-227" value="" style="endArrow=none;html=1;fontFamily=Helvetica;" edge="1" parent="1">
          <mxGeometry width="50" height="50" relative="1" as="geometry">
            <mxPoint x="870" y="2290" as="sourcePoint"/>
            <mxPoint x="870" y="2250" as="targetPoint"/>
          </mxGeometry>
        </mxCell>
        <mxCell id="EupSJTAs6RmiVeXPUSCt-228" value="" style="endArrow=none;html=1;fontFamily=Helvetica;" edge="1" parent="1">
          <mxGeometry width="50" height="50" relative="1" as="geometry">
            <mxPoint x="710" y="2290" as="sourcePoint"/>
            <mxPoint x="870" y="2290" as="targetPoint"/>
          </mxGeometry>
        </mxCell>
        <mxCell id="EupSJTAs6RmiVeXPUSCt-229" value="" style="endArrow=none;html=1;fontFamily=Helvetica;" edge="1" parent="1">
          <mxGeometry width="50" height="50" relative="1" as="geometry">
            <mxPoint x="710" y="2290" as="sourcePoint"/>
            <mxPoint x="710" y="2220" as="targetPoint"/>
          </mxGeometry>
        </mxCell>
        <mxCell id="EupSJTAs6RmiVeXPUSCt-230" value="" style="endArrow=none;html=1;fontFamily=Helvetica;" edge="1" parent="1">
          <mxGeometry width="50" height="50" relative="1" as="geometry">
            <mxPoint x="560" y="2220" as="sourcePoint"/>
            <mxPoint x="710" y="2220" as="targetPoint"/>
          </mxGeometry>
        </mxCell>
        <mxCell id="EupSJTAs6RmiVeXPUSCt-232" value="" style="endArrow=none;html=1;fontFamily=Helvetica;" edge="1" parent="1">
          <mxGeometry width="50" height="50" relative="1" as="geometry">
            <mxPoint x="440" y="2200" as="sourcePoint"/>
            <mxPoint x="520" y="2200" as="targetPoint"/>
          </mxGeometry>
        </mxCell>
        <mxCell id="EupSJTAs6RmiVeXPUSCt-233" value="" style="endArrow=classic;html=1;fontFamily=Helvetica;entryX=0.389;entryY=0;entryDx=0;entryDy=0;entryPerimeter=0;" edge="1" parent="1" target="EupSJTAs6RmiVeXPUSCt-55">
          <mxGeometry width="50" height="50" relative="1" as="geometry">
            <mxPoint x="520" y="2200" as="sourcePoint"/>
            <mxPoint x="410" y="2220" as="targetPoint"/>
          </mxGeometry>
        </mxCell>
        <mxCell id="EupSJTAs6RmiVeXPUSCt-234" value="" style="endArrow=classic;html=1;fontFamily=Helvetica;" edge="1" parent="1">
          <mxGeometry width="50" height="50" relative="1" as="geometry">
            <mxPoint x="560" y="2220" as="sourcePoint"/>
            <mxPoint x="520" y="2220" as="targetPoint"/>
          </mxGeometry>
        </mxCell>
        <mxCell id="EupSJTAs6RmiVeXPUSCt-244" value="" style="endArrow=none;html=1;fontFamily=Helvetica;" edge="1" parent="1">
          <mxGeometry width="50" height="50" relative="1" as="geometry">
            <mxPoint x="530" y="2970" as="sourcePoint"/>
            <mxPoint x="530" y="2970" as="targetPoint"/>
            <Array as="points">
              <mxPoint x="530" y="2970"/>
            </Array>
          </mxGeometry>
        </mxCell>
        <mxCell id="EupSJTAs6RmiVeXPUSCt-247" value="" style="endArrow=none;html=1;fontFamily=Helvetica;entryX=0.5;entryY=1;entryDx=0;entryDy=0;" edge="1" parent="1" target="EupSJTAs6RmiVeXPUSCt-62">
          <mxGeometry width="50" height="50" relative="1" as="geometry">
            <mxPoint x="530" y="2890" as="sourcePoint"/>
            <mxPoint x="450" y="2870" as="targetPoint"/>
          </mxGeometry>
        </mxCell>
        <mxCell id="EupSJTAs6RmiVeXPUSCt-248" value="" style="endArrow=none;html=1;fontFamily=Helvetica;" edge="1" parent="1">
          <mxGeometry width="50" height="50" relative="1" as="geometry">
            <mxPoint x="450" y="2890" as="sourcePoint"/>
            <mxPoint x="530" y="2890" as="targetPoint"/>
          </mxGeometry>
        </mxCell>
        <mxCell id="EupSJTAs6RmiVeXPUSCt-249" value="" style="endArrow=none;html=1;fontFamily=Helvetica;" edge="1" parent="1">
          <mxGeometry width="50" height="50" relative="1" as="geometry">
            <mxPoint x="450" y="2890" as="sourcePoint"/>
            <mxPoint x="450" y="2660" as="targetPoint"/>
          </mxGeometry>
        </mxCell>
        <mxCell id="EupSJTAs6RmiVeXPUSCt-250" value="" style="endArrow=classic;html=1;fontFamily=Helvetica;entryX=0;entryY=0.5;entryDx=0;entryDy=0;" edge="1" parent="1" target="EupSJTAs6RmiVeXPUSCt-60">
          <mxGeometry width="50" height="50" relative="1" as="geometry">
            <mxPoint x="450" y="2660" as="sourcePoint"/>
            <mxPoint x="450" y="2590" as="targetPoint"/>
          </mxGeometry>
        </mxCell>
        <mxCell id="EupSJTAs6RmiVeXPUSCt-252" value="" style="endArrow=none;html=1;fontFamily=Helvetica;exitX=1;exitY=0.5;exitDx=0;exitDy=0;" edge="1" parent="1" source="EupSJTAs6RmiVeXPUSCt-131">
          <mxGeometry width="50" height="50" relative="1" as="geometry">
            <mxPoint x="620" y="2790" as="sourcePoint"/>
            <mxPoint x="630" y="2760" as="targetPoint"/>
          </mxGeometry>
        </mxCell>
        <mxCell id="EupSJTAs6RmiVeXPUSCt-253" value="" style="endArrow=none;html=1;fontFamily=Helvetica;" edge="1" parent="1">
          <mxGeometry width="50" height="50" relative="1" as="geometry">
            <mxPoint x="630" y="2880" as="sourcePoint"/>
            <mxPoint x="630" y="2760" as="targetPoint"/>
          </mxGeometry>
        </mxCell>
        <mxCell id="EupSJTAs6RmiVeXPUSCt-254" value="" style="endArrow=classic;html=1;fontFamily=Helvetica;" edge="1" parent="1">
          <mxGeometry width="50" height="50" relative="1" as="geometry">
            <mxPoint x="630" y="2880" as="sourcePoint"/>
            <mxPoint x="530" y="2880" as="targetPoint"/>
          </mxGeometry>
        </mxCell>
        <mxCell id="EupSJTAs6RmiVeXPUSCt-257" value="" style="endArrow=none;html=1;fontFamily=Helvetica;exitX=1;exitY=0.5;exitDx=0;exitDy=0;" edge="1" parent="1" source="EupSJTAs6RmiVeXPUSCt-130">
          <mxGeometry width="50" height="50" relative="1" as="geometry">
            <mxPoint x="640" y="2680" as="sourcePoint"/>
            <mxPoint x="640" y="2660" as="targetPoint"/>
          </mxGeometry>
        </mxCell>
        <mxCell id="EupSJTAs6RmiVeXPUSCt-258" value="" style="endArrow=none;html=1;fontFamily=Helvetica;" edge="1" parent="1">
          <mxGeometry width="50" height="50" relative="1" as="geometry">
            <mxPoint x="640" y="2660" as="sourcePoint"/>
            <mxPoint x="640" y="2900" as="targetPoint"/>
          </mxGeometry>
        </mxCell>
        <mxCell id="EupSJTAs6RmiVeXPUSCt-259" value="" style="endArrow=none;html=1;fontFamily=Helvetica;" edge="1" parent="1">
          <mxGeometry width="50" height="50" relative="1" as="geometry">
            <mxPoint x="440" y="2900" as="sourcePoint"/>
            <mxPoint x="640" y="2900" as="targetPoint"/>
          </mxGeometry>
        </mxCell>
        <mxCell id="EupSJTAs6RmiVeXPUSCt-260" value="" style="endArrow=none;html=1;fontFamily=Helvetica;" edge="1" parent="1">
          <mxGeometry width="50" height="50" relative="1" as="geometry">
            <mxPoint x="440" y="2900" as="sourcePoint"/>
            <mxPoint x="440" y="2560" as="targetPoint"/>
          </mxGeometry>
        </mxCell>
        <mxCell id="EupSJTAs6RmiVeXPUSCt-261" value="" style="endArrow=classic;html=1;fontFamily=Helvetica;entryX=0;entryY=0.5;entryDx=0;entryDy=0;" edge="1" parent="1" target="EupSJTAs6RmiVeXPUSCt-58">
          <mxGeometry width="50" height="50" relative="1" as="geometry">
            <mxPoint x="440" y="2560" as="sourcePoint"/>
            <mxPoint x="390" y="2600" as="targetPoint"/>
          </mxGeometry>
        </mxCell>
        <mxCell id="EupSJTAs6RmiVeXPUSCt-263" value="" style="endArrow=none;html=1;fontFamily=Helvetica;exitX=1;exitY=0.5;exitDx=0;exitDy=0;" edge="1" parent="1" source="EupSJTAs6RmiVeXPUSCt-129">
          <mxGeometry width="50" height="50" relative="1" as="geometry">
            <mxPoint x="670" y="2590" as="sourcePoint"/>
            <mxPoint x="660" y="2560" as="targetPoint"/>
          </mxGeometry>
        </mxCell>
        <mxCell id="EupSJTAs6RmiVeXPUSCt-264" value="" style="endArrow=none;html=1;fontFamily=Helvetica;" edge="1" parent="1">
          <mxGeometry width="50" height="50" relative="1" as="geometry">
            <mxPoint x="660" y="2910" as="sourcePoint"/>
            <mxPoint x="660" y="2560" as="targetPoint"/>
          </mxGeometry>
        </mxCell>
        <mxCell id="EupSJTAs6RmiVeXPUSCt-265" value="" style="endArrow=none;html=1;fontFamily=Helvetica;" edge="1" parent="1">
          <mxGeometry width="50" height="50" relative="1" as="geometry">
            <mxPoint x="540" y="2910" as="sourcePoint"/>
            <mxPoint x="660" y="2910" as="targetPoint"/>
          </mxGeometry>
        </mxCell>
        <mxCell id="EupSJTAs6RmiVeXPUSCt-266" value="" style="endArrow=classic;html=1;fontFamily=Helvetica;entryX=0.583;entryY=0;entryDx=0;entryDy=0;entryPerimeter=0;" edge="1" parent="1" target="EupSJTAs6RmiVeXPUSCt-63">
          <mxGeometry width="50" height="50" relative="1" as="geometry">
            <mxPoint x="540" y="2910" as="sourcePoint"/>
            <mxPoint x="420" y="2920" as="targetPoint"/>
          </mxGeometry>
        </mxCell>
        <mxCell id="EupSJTAs6RmiVeXPUSCt-267" value="" style="endArrow=none;html=1;fontFamily=Helvetica;exitX=0.5;exitY=1;exitDx=0;exitDy=0;" edge="1" parent="1" source="EupSJTAs6RmiVeXPUSCt-63">
          <mxGeometry width="50" height="50" relative="1" as="geometry">
            <mxPoint x="70" y="3580" as="sourcePoint"/>
            <mxPoint x="530" y="2970" as="targetPoint"/>
          </mxGeometry>
        </mxCell>
        <mxCell id="EupSJTAs6RmiVeXPUSCt-268" value="" style="endArrow=none;html=1;fontFamily=Helvetica;" edge="1" parent="1">
          <mxGeometry width="50" height="50" relative="1" as="geometry">
            <mxPoint x="430" y="2970" as="sourcePoint"/>
            <mxPoint x="530" y="2970" as="targetPoint"/>
          </mxGeometry>
        </mxCell>
        <mxCell id="EupSJTAs6RmiVeXPUSCt-269" value="" style="endArrow=none;html=1;fontFamily=Helvetica;" edge="1" parent="1">
          <mxGeometry width="50" height="50" relative="1" as="geometry">
            <mxPoint x="430" y="2970" as="sourcePoint"/>
            <mxPoint x="430" y="2460" as="targetPoint"/>
          </mxGeometry>
        </mxCell>
        <mxCell id="EupSJTAs6RmiVeXPUSCt-270" value="" style="endArrow=classic;html=1;fontFamily=Helvetica;entryX=0;entryY=0.5;entryDx=0;entryDy=0;" edge="1" parent="1" target="EupSJTAs6RmiVeXPUSCt-57">
          <mxGeometry width="50" height="50" relative="1" as="geometry">
            <mxPoint x="430" y="2460" as="sourcePoint"/>
            <mxPoint x="420" y="2410" as="targetPoint"/>
          </mxGeometry>
        </mxCell>
        <mxCell id="EupSJTAs6RmiVeXPUSCt-271" value="" style="endArrow=none;html=1;fontFamily=Helvetica;exitX=1;exitY=0.5;exitDx=0;exitDy=0;" edge="1" parent="1" source="EupSJTAs6RmiVeXPUSCt-128">
          <mxGeometry width="50" height="50" relative="1" as="geometry">
            <mxPoint x="660" y="2500" as="sourcePoint"/>
            <mxPoint x="680" y="2460" as="targetPoint"/>
          </mxGeometry>
        </mxCell>
        <mxCell id="EupSJTAs6RmiVeXPUSCt-272" value="" style="endArrow=none;html=1;fontFamily=Helvetica;" edge="1" parent="1">
          <mxGeometry width="50" height="50" relative="1" as="geometry">
            <mxPoint x="680" y="2980" as="sourcePoint"/>
            <mxPoint x="680" y="2460" as="targetPoint"/>
          </mxGeometry>
        </mxCell>
        <mxCell id="EupSJTAs6RmiVeXPUSCt-273" value="" style="endArrow=none;html=1;fontFamily=Helvetica;" edge="1" parent="1">
          <mxGeometry width="50" height="50" relative="1" as="geometry">
            <mxPoint x="400" y="2980" as="sourcePoint"/>
            <mxPoint x="680" y="2980" as="targetPoint"/>
          </mxGeometry>
        </mxCell>
        <mxCell id="EupSJTAs6RmiVeXPUSCt-274" value="" style="endArrow=none;html=1;fontFamily=Helvetica;" edge="1" parent="1">
          <mxGeometry width="50" height="50" relative="1" as="geometry">
            <mxPoint x="400" y="2980" as="sourcePoint"/>
            <mxPoint x="400" y="2360" as="targetPoint"/>
          </mxGeometry>
        </mxCell>
        <mxCell id="EupSJTAs6RmiVeXPUSCt-275" value="" style="endArrow=classic;html=1;fontFamily=Helvetica;entryX=0;entryY=0.5;entryDx=0;entryDy=0;" edge="1" parent="1" target="EupSJTAs6RmiVeXPUSCt-56">
          <mxGeometry width="50" height="50" relative="1" as="geometry">
            <mxPoint x="400" y="2360" as="sourcePoint"/>
            <mxPoint x="360" y="2370" as="targetPoint"/>
          </mxGeometry>
        </mxCell>
        <mxCell id="EupSJTAs6RmiVeXPUSCt-276" value="" style="endArrow=none;html=1;fontFamily=Helvetica;exitX=1;exitY=0.5;exitDx=0;exitDy=0;" edge="1" parent="1" source="EupSJTAs6RmiVeXPUSCt-56">
          <mxGeometry width="50" height="50" relative="1" as="geometry">
            <mxPoint x="650" y="2400" as="sourcePoint"/>
            <mxPoint x="700" y="2360" as="targetPoint"/>
          </mxGeometry>
        </mxCell>
        <mxCell id="EupSJTAs6RmiVeXPUSCt-277" value="" style="endArrow=none;html=1;fontFamily=Helvetica;" edge="1" parent="1">
          <mxGeometry width="50" height="50" relative="1" as="geometry">
            <mxPoint x="700" y="3000" as="sourcePoint"/>
            <mxPoint x="700" y="2360" as="targetPoint"/>
          </mxGeometry>
        </mxCell>
        <mxCell id="EupSJTAs6RmiVeXPUSCt-280" value="" style="endArrow=none;html=1;fontFamily=Helvetica;" edge="1" parent="1">
          <mxGeometry width="50" height="50" relative="1" as="geometry">
            <mxPoint x="540" y="3000" as="sourcePoint"/>
            <mxPoint x="700" y="3000" as="targetPoint"/>
          </mxGeometry>
        </mxCell>
        <mxCell id="EupSJTAs6RmiVeXPUSCt-281" value="" style="endArrow=classic;html=1;fontFamily=Helvetica;entryX=0.557;entryY=-0.014;entryDx=0;entryDy=0;entryPerimeter=0;" edge="1" parent="1" target="EupSJTAs6RmiVeXPUSCt-64">
          <mxGeometry width="50" height="50" relative="1" as="geometry">
            <mxPoint x="540" y="3000" as="sourcePoint"/>
            <mxPoint x="330" y="3010" as="targetPoint"/>
          </mxGeometry>
        </mxCell>
        <mxCell id="EupSJTAs6RmiVeXPUSCt-284" value="" style="endArrow=none;html=1;fontFamily=Helvetica;entryX=0.5;entryY=1;entryDx=0;entryDy=0;" edge="1" parent="1" target="EupSJTAs6RmiVeXPUSCt-66">
          <mxGeometry width="50" height="50" relative="1" as="geometry">
            <mxPoint x="540" y="3260" as="sourcePoint"/>
            <mxPoint x="450" y="3270" as="targetPoint"/>
          </mxGeometry>
        </mxCell>
        <mxCell id="EupSJTAs6RmiVeXPUSCt-285" value="" style="endArrow=none;html=1;fontFamily=Helvetica;" edge="1" parent="1">
          <mxGeometry width="50" height="50" relative="1" as="geometry">
            <mxPoint x="410" y="3260" as="sourcePoint"/>
            <mxPoint x="540" y="3260" as="targetPoint"/>
          </mxGeometry>
        </mxCell>
        <mxCell id="EupSJTAs6RmiVeXPUSCt-286" value="" style="endArrow=none;html=1;fontFamily=Helvetica;" edge="1" parent="1">
          <mxGeometry width="50" height="50" relative="1" as="geometry">
            <mxPoint x="410" y="3260" as="sourcePoint"/>
            <mxPoint x="410" y="3050" as="targetPoint"/>
          </mxGeometry>
        </mxCell>
        <mxCell id="EupSJTAs6RmiVeXPUSCt-288" value="" style="endArrow=classic;html=1;fontFamily=Helvetica;entryX=0;entryY=0.5;entryDx=0;entryDy=0;" edge="1" parent="1" target="EupSJTAs6RmiVeXPUSCt-64">
          <mxGeometry width="50" height="50" relative="1" as="geometry">
            <mxPoint x="410" y="3050" as="sourcePoint"/>
            <mxPoint x="340" y="3010" as="targetPoint"/>
          </mxGeometry>
        </mxCell>
        <mxCell id="EupSJTAs6RmiVeXPUSCt-290" value="" style="endArrow=none;html=1;fontFamily=Helvetica;" edge="1" parent="1">
          <mxGeometry width="50" height="50" relative="1" as="geometry">
            <mxPoint x="680" y="3270" as="sourcePoint"/>
            <mxPoint x="680" y="3050" as="targetPoint"/>
          </mxGeometry>
        </mxCell>
        <mxCell id="EupSJTAs6RmiVeXPUSCt-291" value="" style="endArrow=none;html=1;fontFamily=Helvetica;" edge="1" parent="1">
          <mxGeometry width="50" height="50" relative="1" as="geometry">
            <mxPoint x="680" y="3250" as="sourcePoint"/>
            <mxPoint x="680" y="3250" as="targetPoint"/>
          </mxGeometry>
        </mxCell>
        <mxCell id="EupSJTAs6RmiVeXPUSCt-294" value="" style="endArrow=none;html=1;fontFamily=Helvetica;entryX=1;entryY=0.5;entryDx=0;entryDy=0;" edge="1" parent="1" target="EupSJTAs6RmiVeXPUSCt-66">
          <mxGeometry width="50" height="50" relative="1" as="geometry">
            <mxPoint x="660" y="3215" as="sourcePoint"/>
            <mxPoint x="810" y="3240" as="targetPoint"/>
          </mxGeometry>
        </mxCell>
        <mxCell id="EupSJTAs6RmiVeXPUSCt-295" value="" style="endArrow=none;html=1;fontFamily=Helvetica;" edge="1" parent="1">
          <mxGeometry width="50" height="50" relative="1" as="geometry">
            <mxPoint x="660" y="3250" as="sourcePoint"/>
            <mxPoint x="660" y="3210" as="targetPoint"/>
          </mxGeometry>
        </mxCell>
        <mxCell id="EupSJTAs6RmiVeXPUSCt-296" value="" style="endArrow=none;html=1;fontFamily=Helvetica;" edge="1" parent="1">
          <mxGeometry width="50" height="50" relative="1" as="geometry">
            <mxPoint x="590" y="3250" as="sourcePoint"/>
            <mxPoint x="660" y="3250" as="targetPoint"/>
          </mxGeometry>
        </mxCell>
        <mxCell id="EupSJTAs6RmiVeXPUSCt-297" value="" style="endArrow=classic;html=1;fontFamily=Helvetica;" edge="1" parent="1">
          <mxGeometry width="50" height="50" relative="1" as="geometry">
            <mxPoint x="590" y="3250" as="sourcePoint"/>
            <mxPoint x="540" y="3250" as="targetPoint"/>
          </mxGeometry>
        </mxCell>
        <mxCell id="EupSJTAs6RmiVeXPUSCt-298" value="" style="endArrow=none;html=1;fontFamily=Helvetica;" edge="1" parent="1">
          <mxGeometry width="50" height="50" relative="1" as="geometry">
            <mxPoint x="680" y="3270" as="sourcePoint"/>
            <mxPoint x="530" y="3270" as="targetPoint"/>
          </mxGeometry>
        </mxCell>
        <mxCell id="EupSJTAs6RmiVeXPUSCt-299" value="" style="endArrow=classic;html=1;fontFamily=Helvetica;entryX=0.5;entryY=0;entryDx=0;entryDy=0;" edge="1" parent="1" target="EupSJTAs6RmiVeXPUSCt-67">
          <mxGeometry width="50" height="50" relative="1" as="geometry">
            <mxPoint x="530" y="3270" as="sourcePoint"/>
            <mxPoint x="350" y="3270" as="targetPoint"/>
          </mxGeometry>
        </mxCell>
        <mxCell id="EupSJTAs6RmiVeXPUSCt-302" value="" style="endArrow=none;html=1;fontFamily=Helvetica;entryX=0.5;entryY=1;entryDx=0;entryDy=0;" edge="1" parent="1" target="EupSJTAs6RmiVeXPUSCt-68">
          <mxGeometry width="50" height="50" relative="1" as="geometry">
            <mxPoint x="530" y="3430" as="sourcePoint"/>
            <mxPoint x="390" y="3430" as="targetPoint"/>
          </mxGeometry>
        </mxCell>
        <mxCell id="EupSJTAs6RmiVeXPUSCt-303" value="" style="endArrow=none;html=1;fontFamily=Helvetica;" edge="1" parent="1">
          <mxGeometry width="50" height="50" relative="1" as="geometry">
            <mxPoint x="420" y="3430" as="sourcePoint"/>
            <mxPoint x="530" y="3430" as="targetPoint"/>
          </mxGeometry>
        </mxCell>
        <mxCell id="EupSJTAs6RmiVeXPUSCt-304" value="" style="endArrow=none;html=1;fontFamily=Helvetica;" edge="1" parent="1">
          <mxGeometry width="50" height="50" relative="1" as="geometry">
            <mxPoint x="420" y="3430" as="sourcePoint"/>
            <mxPoint x="420" y="3310" as="targetPoint"/>
          </mxGeometry>
        </mxCell>
        <mxCell id="EupSJTAs6RmiVeXPUSCt-305" value="" style="endArrow=classic;html=1;fontFamily=Helvetica;entryX=0;entryY=0.5;entryDx=0;entryDy=0;" edge="1" parent="1" target="EupSJTAs6RmiVeXPUSCt-67">
          <mxGeometry width="50" height="50" relative="1" as="geometry">
            <mxPoint x="420" y="3310" as="sourcePoint"/>
            <mxPoint x="350" y="3320" as="targetPoint"/>
          </mxGeometry>
        </mxCell>
        <mxCell id="EupSJTAs6RmiVeXPUSCt-307" value="" style="endArrow=none;html=1;fontFamily=Helvetica;exitX=1;exitY=0.5;exitDx=0;exitDy=0;" edge="1" parent="1" source="EupSJTAs6RmiVeXPUSCt-64">
          <mxGeometry width="50" height="50" relative="1" as="geometry">
            <mxPoint x="720" y="3070" as="sourcePoint"/>
            <mxPoint x="680" y="3050" as="targetPoint"/>
          </mxGeometry>
        </mxCell>
        <mxCell id="EupSJTAs6RmiVeXPUSCt-308" value="" style="endArrow=none;html=1;fontFamily=Helvetica;" edge="1" parent="1">
          <mxGeometry width="50" height="50" relative="1" as="geometry">
            <mxPoint x="590" y="3310" as="sourcePoint"/>
            <mxPoint x="640" y="3310" as="targetPoint"/>
          </mxGeometry>
        </mxCell>
        <mxCell id="EupSJTAs6RmiVeXPUSCt-309" value="" style="endArrow=none;html=1;fontFamily=Helvetica;" edge="1" parent="1">
          <mxGeometry width="50" height="50" relative="1" as="geometry">
            <mxPoint x="640" y="3440" as="sourcePoint"/>
            <mxPoint x="640" y="3310" as="targetPoint"/>
          </mxGeometry>
        </mxCell>
        <mxCell id="EupSJTAs6RmiVeXPUSCt-310" value="" style="endArrow=none;html=1;fontFamily=Helvetica;" edge="1" parent="1">
          <mxGeometry width="50" height="50" relative="1" as="geometry">
            <mxPoint x="530" y="3440" as="sourcePoint"/>
            <mxPoint x="640" y="3440" as="targetPoint"/>
          </mxGeometry>
        </mxCell>
        <mxCell id="EupSJTAs6RmiVeXPUSCt-311" value="" style="endArrow=classic;html=1;fontFamily=Helvetica;entryX=0.575;entryY=0;entryDx=0;entryDy=0;entryPerimeter=0;" edge="1" parent="1" target="EupSJTAs6RmiVeXPUSCt-69">
          <mxGeometry width="50" height="50" relative="1" as="geometry">
            <mxPoint x="530" y="3440" as="sourcePoint"/>
            <mxPoint x="390" y="3460" as="targetPoint"/>
          </mxGeometry>
        </mxCell>
      </root>
    </mxGraphModel>
  </diagram>
</mxfile>
